<svg xmlns="http://www.w3.org/2000/svg" width="250" height="160" viewBox="0 0 250 160" overflow="scroll"><style>.st0{fill:#122330;}</style><path class="st0" d="M94.6 22.3v21.1s-.7.2-1.4.2c-.8 0-1.4-.2-1.4-.2V22.3h-6.5s-.2-.4-.2-1 .2-1 .2-1H101s.2.4.2 1-.2 1-.2 1h-6.4zM105.7 25.7c0-3.5 2.3-5.5 8-5.5 5.8 0 8.1 2 8.1 5.5V38c0 3.5-2.3 5.5-8.1 5.5s-8-2-8-5.5V25.7zm2.8 12.4c0 2.4 1.4 3.6 5.2 3.6 3.9 0 5.2-1.2 5.2-3.6V25.7c0-2.4-1.3-3.6-5.2-3.6-3.8 0-5.2 1.2-5.2 3.6v12.4zM135.8 22.3v21.1s-.7.2-1.4.2c-.8 0-1.5-.2-1.5-.2V22.3h-6.5s-.2-.4-.2-1 .2-1 .2-1h15.8s.2.4.2 1-.2 1-.2 1h-6.4zM150.6 20.4s.9-.2 1.9-.2c1 0 1.9.2 1.9.2l7.2 22.9s-.7.2-1.4.2-1.5-.2-1.5-.2l-1.9-6.1h-8.9l-1.9 6.1s-.8.2-1.4.2c-.7 0-1.4-.2-1.4-.2l7.4-22.9zm-2 14.9h7.9l-3.9-12.6-4 12.6zM169.4 41.5h9.9s.2.4.2 1-.2 1-.2 1h-6.1c-4 0-6.6-.2-6.6-.2V20.4s.7-.2 1.5-.2c.7 0 1.4.2 1.4.2v21.1zM86 60.1s3.1-.3 7.4-.3c5.3 0 7.4 2 7.4 5.5v1.2c0 2.3-1.1 3.9-3.5 4.6 2.8.7 4 2.4 4 4.7v1.6c0 3.6-2.2 5.7-7.8 5.7-4.4 0-7.4-.3-7.4-.3V60.1zm2.9 10.1h4.6c3.4 0 4.5-1.2 4.5-3.7v-1.2c0-2.4-1.2-3.6-4.5-3.6h-4.6v8.5zm0 11h4.6c3.7 0 4.9-1.2 4.9-3.8v-1.6c0-2.5-1.3-3.8-4.9-3.8h-4.6v9.2zM109.4 81.1h10.9s.2.4.2 1-.2 1-.2 1h-7.1c-4 0-6.6-.2-6.6-.2V60.2s2.6-.2 6.6-.2h7s.2.4.2 1-.2 1-.2 1h-10.7v8.3h9.6s.2.4.2 1-.2 1-.2 1h-9.6v8.8zM132.1 60s.9-.2 1.9-.2c1 0 1.9.2 1.9.2l7.2 22.9s-.7.2-1.4.2-1.5-.2-1.5-.2l-1.9-6.1h-8.9l-1.9 6.1s-.8.2-1.4.2c-.7 0-1.4-.2-1.4-.2l7.4-22.9zm-2 14.9h7.9l-4-12.6-3.9 12.6zM163.3 77.6c0 3.5-2.2 5.5-7.9 5.5s-7.9-2-7.9-5.5V60s.7-.2 1.5-.2c.7 0 1.4.2 1.4.2v17.6c0 2.4 1.3 3.6 5 3.6 3.8 0 5.1-1.2 5.1-3.6V60s.7-.2 1.4-.2 1.4.2 1.4.2v17.6zM177.8 61.9v21s-.7.2-1.4.2c-.8 0-1.5-.2-1.5-.2v-21h-6.5s-.2-.4-.2-1 .2-1 .2-1h15.8s.2.4.2 1-.2 1-.2 1h-6.4zM198.8 73.4v9.5s-.7.2-1.4.2c-.8 0-1.4-.2-1.4-.2v-9.5L188.8 60s.8-.2 1.6-.2c.7 0 1.5.2 1.5.2l5.5 10.7 5.5-10.7s.8-.2 1.6-.2c.7 0 1.5.2 1.5.2l-7.2 13.4zM88.6 106.4c0 4.6 12.1 2.3 12.1 9.2v1.5c0 3.6-2 5.5-7.6 5.5-5.8 0-7.6-2-7.6-5.5v-.5s.7-.2 1.4-.2 1.4.2 1.4.2v.5c0 2.5 1.2 3.6 4.8 3.6 3.6 0 4.7-1.1 4.7-3.6v-1.5c0-5-12.1-2.6-12.1-9.2v-1.6c0-3.6 2-5.5 7.4-5.5 5.6 0 7.3 2 7.3 5.5v.5s-.7.2-1.4.2-1.4-.2-1.4-.2v-.5c0-2.4-1.1-3.6-4.5-3.6s-4.6 1.2-4.6 3.6v1.6zM106 104.9c0-3.5 2.1-5.5 7.9-5.5 5.8 0 7.6 2 7.6 5.5v.5s-.7.2-1.3.2-1.3-.2-1.3-.2v-.5c0-2.4-1.2-3.6-5-3.6s-5 1.2-5 3.6v12.3c0 2.4 1.3 3.6 5.3 3.6 4.3 0 6.8-1.4 6.8-1.5 0 0 .2.4.2 1s-.2 1-.2 1-2.3 1.4-6.8 1.4c-5.9 0-8.1-2-8.1-5.5v-12.3zM143 122.5s-.7.2-1.4.2c-.8 0-1.4-.2-1.4-.2v-10.8h-10.5v10.8s-.7.2-1.4.2c-.8 0-1.5-.2-1.5-.2V99.6s.7-.2 1.5-.2c.7 0 1.4.2 1.4.2v10.2h10.5V99.6s.7-.2 1.4-.2 1.4.2 1.4.2v22.9zM148.5 104.9c0-3.5 2.3-5.5 8.1-5.5s8 2 8 5.5v12.3c0 3.5-2.3 5.5-8 5.5-5.8 0-8.1-2-8.1-5.5v-12.3zm2.8 12.3c0 2.4 1.4 3.6 5.2 3.6 3.9 0 5.2-1.2 5.2-3.6v-12.3c0-2.4-1.3-3.6-5.2-3.6-3.8 0-5.2 1.2-5.2 3.6v12.3zM170 104.9c0-3.5 2.3-5.5 8-5.5 5.8 0 8.1 2 8.1 5.5v12.3c0 3.5-2.3 5.5-8.1 5.5s-8-2-8-5.5v-12.3zm2.8 12.3c0 2.4 1.4 3.6 5.2 3.6 3.9 0 5.2-1.2 5.2-3.6v-12.3c0-2.4-1.3-3.6-5.2-3.6-3.8 0-5.2 1.2-5.2 3.6v12.3zM194.4 120.7h9.9s.2.4.2 1-.2 1-.2 1h-6.1c-4 0-6.6-.2-6.6-.2V99.6s.7-.2 1.4-.2 1.4.2 1.4.2v21.1zM221.6 53.2l-20.2-14.9h3.6l12.4 9.1-5-15.4 13.1-9.5-16.2.1-4.9-15.4-5 15.4-16.2-.1-3.4-2.2 18 .1L204.4 0l6.5 20.4 21.4-.1L215 32.8"/></svg>