<svg xmlns="http://www.w3.org/2000/svg" width="25" height="25" viewBox="0 0 25 25"><path fill="#fff" d="M17.802 12.298s1.617 1.597 2.017 2.336c.01.016.015.028.017.035.163.272.203.486.123.644-.135.26-.592.392-.747.403h-2.858c-.2 0-.613-.052-1.117-.4-.385-.27-.768-.712-1.14-1.145-.553-.643-1.032-1.2-1.517-1.2-.06 0-.12.01-.18.03-.366.115-.832.638-.832 2.03 0 .437-.344.685-.585.685h-1.31c-.445 0-2.767-.156-4.826-2.327C2.324 10.732.057 5.4.037 5.353-.106 5.008.19 4.82.51 4.82h2.887c.387 0 .513.234.6.444.103.24.48 1.205 1.1 2.288 1.005 1.762 1.622 2.48 2.115 2.48.093 0 .18-.024.264-.07.644-.355.524-2.655.494-3.13 0-.09 0-1.026-.33-1.478-.237-.324-.64-.45-.882-.496.065-.094.203-.238.38-.323.44-.22 1.238-.252 2.03-.252h.438c.858.012 1.08.067 1.392.146.628.15.64.556.585 1.942-.016.396-.033.842-.033 1.367 0 .11-.005.236-.005.363-.02.71-.044 1.512.458 1.84.064.04.14.063.217.063.174 0 .695 0 2.108-2.425.62-1.07 1.1-2.333 1.133-2.428.03-.053.113-.202.215-.262.078-.048.182-.056.236-.056h3.396c.37 0 .62.056.67.196.082.227-.016.92-1.566 3.016-.26.35-.49.65-.69.915-1.406 1.845-1.406 1.938.082 3.338z"/></svg>