<!-- Generator: Adobe Illustrator 19.0.0, SVG Export Plug-In  -->
<svg version="1.1"
     xmlns="http://www.w3.org/2000/svg" xmlns:xlink="http://www.w3.org/1999/xlink" xmlns:a="http://ns.adobe.com/AdobeSVGViewerExtensions/3.0/"
     x="0px" y="0px" width="250px" height="160px" viewBox="0 0 250 160"
     style="overflow:scroll;enable-background:new 0 0 1080 3749.9;" xml:space="preserve">
<style type="text/css">
    .st0{fill:#122330;}
</style>
<defs>
</defs>
<g>
    <g>
        <g>
            <path class="st0" d="M94.6,22.3v21.1c0,0-0.7,0.2-1.4,0.2c-0.8,0-1.4-0.2-1.4-0.2V22.3h-6.5c0,0-0.2-0.4-0.2-1c0-0.6,0.2-1,0.2-1
                H101c0,0,0.2,0.4,0.2,1c0,0.6-0.2,1-0.2,1H94.6z"/>
            <path class="st0" d="M105.7,25.7c0-3.5,2.3-5.5,8-5.5c5.8,0,8.1,2,8.1,5.5v12.3c0,3.5-2.3,5.5-8.1,5.5c-5.8,0-8-2-8-5.5V25.7z
                 M108.5,38.1c0,2.4,1.4,3.6,5.2,3.6c3.9,0,5.2-1.2,5.2-3.6V25.7c0-2.4-1.3-3.6-5.2-3.6c-3.8,0-5.2,1.2-5.2,3.6V38.1z"/>
            <path class="st0" d="M135.8,22.3v21.1c0,0-0.7,0.2-1.4,0.2c-0.8,0-1.5-0.2-1.5-0.2V22.3h-6.5c0,0-0.2-0.4-0.2-1
                c0-0.6,0.2-1,0.2-1h15.8c0,0,0.2,0.4,0.2,1c0,0.6-0.2,1-0.2,1H135.8z"/>
            <path class="st0" d="M150.6,20.4c0,0,0.9-0.2,1.9-0.2c1,0,1.9,0.2,1.9,0.2l7.2,22.9c0,0-0.7,0.2-1.4,0.2c-0.7,0-1.5-0.2-1.5-0.2
                l-1.9-6.1h-8.9l-1.9,6.1c0,0-0.8,0.2-1.4,0.2c-0.7,0-1.4-0.2-1.4-0.2L150.6,20.4z M148.6,35.3h7.9l-3.9-12.6L148.6,35.3z"/>
            <path class="st0" d="M169.4,41.5h9.9c0,0,0.2,0.4,0.2,1c0,0.6-0.2,1-0.2,1h-6.1c-4,0-6.6-0.2-6.6-0.2V20.4c0,0,0.7-0.2,1.5-0.2
                c0.7,0,1.4,0.2,1.4,0.2V41.5z"/>
            <path class="st0" d="M86,60.1c0,0,3.1-0.3,7.4-0.3c5.3,0,7.4,2,7.4,5.5v1.2c0,2.3-1.1,3.9-3.5,4.6c2.8,0.7,4,2.4,4,4.7v1.6
                c0,3.6-2.2,5.7-7.8,5.7c-4.4,0-7.4-0.3-7.4-0.3V60.1z M88.9,70.2h4.6c3.4,0,4.5-1.2,4.5-3.7v-1.2c0-2.4-1.2-3.6-4.5-3.6h-4.6
                V70.2z M88.9,81.2h4.6c3.7,0,4.9-1.2,4.9-3.8v-1.6c0-2.5-1.3-3.8-4.9-3.8h-4.6V81.2z"/>
            <path class="st0" d="M109.4,81.1h10.9c0,0,0.2,0.4,0.2,1c0,0.6-0.2,1-0.2,1h-7.1c-4,0-6.6-0.2-6.6-0.2V60.2c0,0,2.6-0.2,6.6-0.2
                h7c0,0,0.2,0.4,0.2,1c0,0.6-0.2,1-0.2,1h-10.7v8.3h9.6c0,0,0.2,0.4,0.2,1c0,0.6-0.2,1-0.2,1h-9.6V81.1z"/>
            <path class="st0" d="M132.1,60c0,0,0.9-0.2,1.9-0.2c1,0,1.9,0.2,1.9,0.2l7.2,22.9c0,0-0.7,0.2-1.4,0.2c-0.7,0-1.5-0.2-1.5-0.2
                l-1.9-6.1h-8.9l-1.9,6.1c0,0-0.8,0.2-1.4,0.2c-0.7,0-1.4-0.2-1.4-0.2L132.1,60z M130.1,74.9h7.9L134,62.3L130.1,74.9z"/>
            <path class="st0" d="M163.3,77.6c0,3.5-2.2,5.5-7.9,5.5c-5.7,0-7.9-2-7.9-5.5V60c0,0,0.7-0.2,1.5-0.2c0.7,0,1.4,0.2,1.4,0.2v17.6
                c0,2.4,1.3,3.6,5,3.6c3.8,0,5.1-1.2,5.1-3.6V60c0,0,0.7-0.2,1.4-0.2c0.7,0,1.4,0.2,1.4,0.2V77.6z"/>
            <path class="st0" d="M177.8,61.9v21c0,0-0.7,0.2-1.4,0.2c-0.8,0-1.5-0.2-1.5-0.2v-21h-6.5c0,0-0.2-0.4-0.2-1c0-0.6,0.2-1,0.2-1
                h15.8c0,0,0.2,0.4,0.2,1c0,0.6-0.2,1-0.2,1H177.8z"/>
            <path class="st0" d="M198.8,73.4v9.5c0,0-0.7,0.2-1.4,0.2c-0.8,0-1.4-0.2-1.4-0.2v-9.5L188.8,60c0,0,0.8-0.2,1.6-0.2
                c0.7,0,1.5,0.2,1.5,0.2l5.5,10.7l5.5-10.7c0,0,0.8-0.2,1.6-0.2c0.7,0,1.5,0.2,1.5,0.2L198.8,73.4z"/>
            <path class="st0" d="M88.6,106.4c0,4.6,12.1,2.3,12.1,9.2v1.5c0,3.6-2,5.5-7.6,5.5c-5.8,0-7.6-2-7.6-5.5v-0.5
                c0,0,0.7-0.2,1.4-0.2c0.7,0,1.4,0.2,1.4,0.2v0.5c0,2.5,1.2,3.6,4.8,3.6c3.6,0,4.7-1.1,4.7-3.6v-1.5c0-5-12.1-2.6-12.1-9.2v-1.6
                c0-3.6,2-5.5,7.4-5.5c5.6,0,7.3,2,7.3,5.5v0.5c0,0-0.7,0.2-1.4,0.2c-0.7,0-1.4-0.2-1.4-0.2v-0.5c0-2.4-1.1-3.6-4.5-3.6
                c-3.4,0-4.6,1.2-4.6,3.6V106.4z"/>
            <path class="st0" d="M106,104.9c0-3.5,2.1-5.5,7.9-5.5c5.8,0,7.6,2,7.6,5.5v0.5c0,0-0.7,0.2-1.3,0.2s-1.3-0.2-1.3-0.2v-0.5
                c0-2.4-1.2-3.6-5-3.6c-3.8,0-5,1.2-5,3.6v12.3c0,2.4,1.3,3.6,5.3,3.6c4.3,0,6.8-1.4,6.8-1.5c0,0,0.2,0.4,0.2,1c0,0.6-0.2,1-0.2,1
                s-2.3,1.4-6.8,1.4c-5.9,0-8.1-2-8.1-5.5V104.9z"/>
            <path class="st0" d="M143,122.5c0,0-0.7,0.2-1.4,0.2c-0.8,0-1.4-0.2-1.4-0.2v-10.8h-10.5v10.8c0,0-0.7,0.2-1.4,0.2
                c-0.8,0-1.5-0.2-1.5-0.2V99.6c0,0,0.7-0.2,1.5-0.2c0.7,0,1.4,0.2,1.4,0.2v10.2h10.5V99.6c0,0,0.7-0.2,1.4-0.2
                c0.7,0,1.4,0.2,1.4,0.2V122.5z"/>
            <path class="st0" d="M148.5,104.9c0-3.5,2.3-5.5,8.1-5.5c5.8,0,8,2,8,5.5v12.3c0,3.5-2.3,5.5-8,5.5c-5.8,0-8.1-2-8.1-5.5V104.9z
                 M151.3,117.2c0,2.4,1.4,3.6,5.2,3.6c3.9,0,5.2-1.2,5.2-3.6v-12.3c0-2.4-1.3-3.6-5.2-3.6c-3.8,0-5.2,1.2-5.2,3.6V117.2z"/>
            <path class="st0" d="M170,104.9c0-3.5,2.3-5.5,8-5.5c5.8,0,8.1,2,8.1,5.5v12.3c0,3.5-2.3,5.5-8.1,5.5c-5.8,0-8-2-8-5.5V104.9z
                 M172.8,117.2c0,2.4,1.4,3.6,5.2,3.6c3.9,0,5.2-1.2,5.2-3.6v-12.3c0-2.4-1.3-3.6-5.2-3.6c-3.8,0-5.2,1.2-5.2,3.6V117.2z"/>
            <path class="st0" d="M194.4,120.7h9.9c0,0,0.2,0.4,0.2,1c0,0.6-0.2,1-0.2,1h-6.1c-4,0-6.6-0.2-6.6-0.2V99.6c0,0,0.7-0.2,1.4-0.2
                c0.7,0,1.4,0.2,1.4,0.2V120.7z"/>
        </g>
        <polygon class="st0" points="221.6,53.2 201.4,38.3 205,38.3 217.4,47.4 212.4,32 225.5,22.5 209.3,22.6 204.4,7.2 199.4,22.6
            183.2,22.5 179.8,20.3 197.8,20.4 204.4,0 210.9,20.4 232.3,20.3 215,32.8         "/>
    </g>
</g>
</svg>



